<?xml version="1.0" encoding="UTF-8" standalone="no"?>
<svg
   xmlns:dc="http://purl.org/dc/elements/1.1/"
   xmlns:cc="http://creativecommons.org/ns#"
   xmlns:rdf="http://www.w3.org/1999/02/22-rdf-syntax-ns#"
   xmlns:svg="http://www.w3.org/2000/svg"
   xmlns="http://www.w3.org/2000/svg"
   xmlns:sodipodi="http://sodipodi.sourceforge.net/DTD/sodipodi-0.dtd"
   xmlns:inkscape="http://www.inkscape.org/namespaces/inkscape"
   id="svg2"
   viewBox="0 0 251 251"
   version="1.1"
   inkscape:version="0.48.4 r9939"
   width="100%"
   height="100%"
   sodipodi:docname="coin_thumbs__up.svg"
   inkscape:export-filename="/home/nicolas/django-recipes/static/recipe-cost.png"
   inkscape:export-xdpi="6.8127489"
   inkscape:export-ydpi="6.8127489">
  <defs
     id="defs37" />
  <sodipodi:namedview
     pagecolor="#ffffff"
     bordercolor="#666666"
     borderopacity="1"
     objecttolerance="10"
     gridtolerance="10"
     guidetolerance="10"
     inkscape:pageopacity="0"
     inkscape:pageshadow="2"
     inkscape:window-width="1920"
     inkscape:window-height="1025"
     id="namedview35"
     showgrid="false"
     inkscape:zoom="0.47011952"
     inkscape:cx="651.84385"
     inkscape:cy="-22.56258"
     inkscape:window-x="-2"
     inkscape:window-y="-3"
     inkscape:window-maximized="1"
     inkscape:current-layer="g9054" />
  <title
     id="title7506">Coin thumbs up</title>
  <g
     id="layer1"
     transform="translate(2634.3 -4346.8)">
    <g
       id="g9050"
       transform="translate(-381.56 2460.3)">
      <rect
         id="rect9052"
         style="color:#000000"
         height="251"
         width="251"
         y="1886.5"
         x="-2252.7"
         fill="none" />
      <g
         id="g9054"
         transform="matrix(.59541 0 0 .59541 -743.86 1531)">
        <path
           id="path9056"
           style="color:#000000"
           fill="#d5b04f"
           d="m-2332.4 605.98c-111.49 0-201.84 90.358-201.84 201.84 0 111.49 90.358 201.87 201.84 201.87 5.3955 0 10.742-0.2095 16.031-0.625-103.99-8.1701-185.84-95.16-185.84-201.25s81.852-193.05 185.84-201.22c-5.2887-0.41551-10.636-0.625-16.031-0.625z" />
        <path
           id="path9058"
           fill-rule="evenodd"
           fill="#c89c31"
           d="m-2361.5 608.07c-12.895 1.8628-25.39 4.9453-37.375 9.125 8.5459 0.50507 18.737 0.80776 29.719 0.84375 11.044-4.0049 22.529-7.0883 34.375-9.125-7.7512-0.4646-16.869-0.76127-26.719-0.84375zm-37.187 23.125c-12.367 0-23.775 0.35189-33.125 0.9375-3.984 2.259-7.8784 4.64-11.688 7.1562 7.4006 0.82125 17.678 1.4304 29.5 1.7188 5.1331-3.5038 10.417-6.7849 15.875-9.8125-0.1892-0.00016-0.3728 0-0.5624 0zm-35.313 23.188c-11.691 0.10406-22.318 0.52878-30.844 1.1562-2.5961 2.2602-5.1482 4.5806-7.625 6.9688 7.6352 0.82236 18.219 1.4197 30.312 1.6875 3.4421-3.3984 7.0094-6.6668 10.688-9.8125-0.8413 0.004-1.7-0.007-2.5313 0zm-24.312 23.125c-10.896 0.097-20.88 0.46953-29.094 1.0312-2.0354 2.4381-3.9857 4.9351-5.9062 7.4688 8.19 0.73433 18.93 1.2532 30.969 1.4375 2.5225-3.3884 5.1184-6.7174 7.8437-9.9375-1.2766-0.004-2.5604-0.0111-3.8124 0zm-13.094 23.125c-12.21 0.0232-23.452 0.37505-32.625 0.96875-1.5744 2.5387-3.0993 5.1067-4.5625 7.7188 8.5016 0.6793 19.309 1.1501 31.312 1.2812 1.8653-3.3871 3.8244-6.7038 5.875-9.9688zm-18.656 23.156c-9.4332 0-18.315 0.20747-26.156 0.5625-1.304 2.8674-2.5156 5.7815-3.6875 8.7188 8.6933 0.46879 18.889 0.71875 29.844 0.71875 0.6321 0 1.2477 0.002 1.875 0 1.3288-3.3692 2.7478-6.691 4.25-9.9688-2.0118-0.0188-4.0567-0.0312-6.125-0.0312zm-14.719 23.156c-7.1309 0-13.922 0.13444-20.219 0.34375-0.9527 3.0355-1.8136 6.1233-2.625 9.2188 7.0029 0.26831 14.716 0.4375 22.844 0.4375 3.0916 0 6.104-0.021 9.0625-0.0625 0.8628-3.3185 1.8186-6.594 2.8437-9.8438-3.844-0.0716-7.8192-0.0937-11.906-0.0937zm-17.625 23.156c-2.8573 0.0254-5.5951 0.0948-8.3125 0.15625-0.602 3.1983-1.1132 6.4066-1.5625 9.6562 4.9921 0.12499 10.238 0.1875 15.688 0.1875 5.6747 0 11.136-0.0836 16.312-0.21875 0.4433-3.2012 0.9709-6.3799 1.5625-9.5312-5.6318-0.16274-11.624-0.25-17.875-0.25-1.9703 0-3.8934-0.0171-5.8125 0zm5.8125 23.125c-5.9696 0-11.716 0.0698-17.125 0.21875-0.2225 3.162-0.3623 6.3307-0.4375 9.5312 5.5385 0.15694 11.428 0.25 17.562 0.25 5.0103 0 9.8368-0.05 14.469-0.15625 0.075-3.2539 0.2103-6.4734 0.4376-9.6875-4.7627-0.11281-9.7385-0.15625-14.906-0.15625zm0 23.156c-6.0871 0-11.936 0.0954-17.438 0.25 0.1375 3.1976 0.3405 6.3739 0.625 9.5312 5.3182 0.1435 10.958 0.21875 16.812 0.21875 5.2919 0 10.385-0.0694 15.25-0.1875-0.2884-3.1956-0.5185-6.4195-0.6563-9.6562-4.6693-0.10811-9.5384-0.15625-14.594-0.15625zm0 23.156c-5.2468 0-10.299 0.0713-15.125 0.1875 0.5167 3.2544 1.111 6.4868 1.7813 9.6875 4.2895 0.0902 8.7388 0.125 13.344 0.125 6.5561 0 12.821-0.10297 18.688-0.28125-0.6553-3.1408-1.2738-6.3075-1.7812-9.5-5.3469-0.14509-11.018-0.21875-16.906-0.21875zm-5.8125 23.156c-1.4608 0.013-2.8238 0.0399-4.25 0.0625 0.9402 3.3318 1.9579 6.6467 3.0625 9.9062 2.2972 0.0247 4.6269 0.0312 7 0.0312 8.9404 0 17.368-0.17893 24.906-0.5-1.0112-3.0064-1.9723-6.0259-2.8438-9.0938-6.7924-0.24956-14.24-0.40625-22.062-0.40625-1.9703 0-3.8934-0.0171-5.8125 0zm22.031 23.125c-6.3448 0-12.423 0.0826-18.125 0.25 1.3609 3.2334 2.7907 6.4487 4.3126 9.5938 4.4326 0.0968 9.0385 0.15625 13.812 0.15625 6.3683 0 12.465-0.0814 18.188-0.25-1.5231-3.1504-2.951-6.3547-4.3126-9.5938-4.4528-0.0976-9.0785-0.15625-13.875-0.15625zm5.9063 23.156c-4.3235 0-8.5126 0.0452-12.562 0.125 1.9414 3.3412 4.0009 6.6277 6.125 9.8438 2.1141 0.0208 4.2604 0.0312 6.4375 0.0312 9.0884 0 17.653-0.20012 25.281-0.53125-1.9702-3.0015-3.876-6.0462-5.6876-9.1562-6.1207-0.19637-12.698-0.3125-19.594-0.3125zm26.531 23.156c-8.2508 0-16.07 0.16147-23.156 0.4375 2.5245 3.208 5.1644 6.3281 7.875 9.375 4.8741 0.11858 9.9782 0.1875 15.281 0.1875 5.821 0 11.427-0.0768 16.719-0.21875-2.8067-3.1562-5.518-6.39-8.125-9.7188-2.8098-0.0373-5.6654-0.0625-8.5937-0.0625zm14.719 23.125c-5.8435 0-11.472 0.0758-16.781 0.21875 3.6284 3.3842 7.3796 6.6378 11.25 9.75 1.8193 0.0153 3.6663 0.0312 5.5313 0.0312 9.322 0 18.098-0.184 25.875-0.53125-3.6668-2.9724-7.2398-6.0635-10.688-9.2812-4.8464-0.11713-9.9181-0.1875-15.188-0.1875zm36.875 23.156c-8.2999 0-16.162 0.15836-23.281 0.4375 5.4661 3.4353 11.104 6.6222 16.906 9.5312 2.0937 0.0204 4.2196 0.0312 6.375 0.0312 8.8789 0 17.254-0.18307 24.75-0.5-5.684-2.8872-11.236-6.0437-16.594-9.4375-2.6702-0.0336-5.3804-0.0625-8.1563-0.0625zm49.344 23.156c-7.424 0-14.493 0.149-21 0.375 17.664 5.0517 36.338 7.75 55.625 7.75 4.5208 0 8.9907-0.1454 13.438-0.4375 0.6213-0.085 1.2177-0.1619 1.7812-0.25-13.658-1.1281-26.936-3.6315-39.688-7.3437-3.3026-0.052-6.6836-0.094-10.156-0.094z" />
        <path
           id="path9060"
           style="color:#000000"
           transform="matrix(.87763 0 0 .87763 -867.56 631.95)"
           fill="#eed175"
           d="m-1418.7 200.41c0 127.03-102.98 230.01-230.01 230.01s-230.01-102.98-230.01-230.01 102.98-230.01 230.01-230.01 230.01 102.98 230.01 230.01z" />
        <path
           id="path9062"
           style="color:#000000"
           transform="matrix(.85520 0 0 .85520 -904.48 637.93)"
           fill="#c89c31"
           d="m-1418.7 200.41c0 127.03-102.98 230.01-230.01 230.01s-230.01-102.98-230.01-230.01 102.98-230.01 230.01-230.01 230.01 102.98 230.01 230.01z" />
        <path
           id="path9064"
           style="color:#000000"
           transform="matrix(.82788 0 0 .82788 -949.58 643.86)"
           fill="#ebc859"
           d="m-1418.7 200.41c0 127.03-102.98 230.01-230.01 230.01s-230.01-102.98-230.01-230.01 102.98-230.01 230.01-230.01 230.01 102.98 230.01 230.01z" />
        <path
           id="path9066"
           style="color:#000000"
           fill="#d2aa48"
           d="m-2452.9 677.31c-72.227 76.441-70.874 196.55 5.5673 268.78 20.645 19.507 42.898 35.915 70.193 43.215-16.765-8.6848-31.017-20.616-45.428-34.233-82.925-78.354-86.776-208.93-8.6195-291.64 7.5446-7.9848 15.986-13.791 24.418-20.298-16.558 9.2296-32.421 19.667-46.131 34.176z" />
        <path
           id="path9068"
           style="color:#000000"
           fill="#f7e587"
           d="m-2199 961.72c83.732-63.631 100.05-183.09 36.418-266.82-17.185-22.614-38.472-40.285-61.998-52.815 15.123 11.304 28.98 24.862 40.977 40.648 69.029 90.835 51.523 220.29-39.083 289.14-8.7464 6.6468-17.853 12.473-27.233 17.516 17.842-6.4041 35.026-15.588 50.92-27.667z" />
        <path
           id="path9070"
           opacity=".5"
           style="color:#000000"
           fill="#f7e587"
           d="m-2307.7 620.11c-35.969 0-68.669 3.5281-100.87 24.436-50.233 32.618-79.043 96.388-79.043 161.94 0 15.828 1.9444 31.197 5.5754 45.865 34.848 43.715 77.713 49.303 125.35 49.303 99.804 0 178.62-82.519 178.62-185.01 0-15.806-2.5015-30.289-6.1228-44.939-32.288-30.956-75.864-51.597-123.52-51.597z" />
      </g>
    </g>
  </g>
  <metadata
     id="metadata33">
    <rdf:RDF>
      <cc:Work>
        <dc:format>image/svg+xml</dc:format>
        <dc:type
           rdf:resource="http://purl.org/dc/dcmitype/StillImage" />
        <cc:license
           rdf:resource="http://creativecommons.org/licenses/publicdomain/" />
        <dc:publisher>
          <cc:Agent
             rdf:about="http://openclipart.org/">
            <dc:title>Openclipart</dc:title>
          </cc:Agent>
        </dc:publisher>
        <dc:title>Coin thumbs up</dc:title>
        <dc:date>2013-08-15T14:44:31</dc:date>
        <dc:description>Coin with thumbs up</dc:description>
        <dc:source>http://openclipart.org/detail/181846/coin-thumbs-up-by-ahninniah-181846</dc:source>
        <dc:creator>
          <cc:Agent>
            <dc:title>AhNinniah</dc:title>
          </cc:Agent>
        </dc:creator>
        <dc:subject>
          <rdf:Bag>
            <rdf:li>clip art</rdf:li>
            <rdf:li>clipart</rdf:li>
            <rdf:li>coin</rdf:li>
            <rdf:li>coin thumbs up</rdf:li>
            <rdf:li>gold coin</rdf:li>
            <rdf:li>image</rdf:li>
            <rdf:li>money</rdf:li>
            <rdf:li>svg</rdf:li>
            <rdf:li>vector</rdf:li>
          </rdf:Bag>
        </dc:subject>
      </cc:Work>
      <cc:License
         rdf:about="http://creativecommons.org/licenses/publicdomain/">
        <cc:permits
           rdf:resource="http://creativecommons.org/ns#Reproduction" />
        <cc:permits
           rdf:resource="http://creativecommons.org/ns#Distribution" />
        <cc:permits
           rdf:resource="http://creativecommons.org/ns#DerivativeWorks" />
      </cc:License>
    </rdf:RDF>
  </metadata>
</svg>
