<?xml version="1.0" encoding="UTF-8" standalone="no"?>
<svg
   xmlns:dc="http://purl.org/dc/elements/1.1/"
   xmlns:cc="http://creativecommons.org/ns#"
   xmlns:rdf="http://www.w3.org/1999/02/22-rdf-syntax-ns#"
   xmlns:svg="http://www.w3.org/2000/svg"
   xmlns="http://www.w3.org/2000/svg"
   xmlns:sodipodi="http://sodipodi.sourceforge.net/DTD/sodipodi-0.dtd"
   xmlns:inkscape="http://www.inkscape.org/namespaces/inkscape"
   id="Layer_1"
   xml:space="preserve"
   viewBox="0 0 229.14268 229.6344"
   version="1.1"
   x="0px"
   y="0px"
   enable-background="new 0 0 530.429 277.12"
   inkscape:version="0.48.4 r9939"
   width="100%"
   height="100%"
   sodipodi:docname="johnny_automatic_bbq_tools.svg"
   inkscape:export-filename="/home/nicolas/django-recipes/src/recipe-difficulty.png"
   inkscape:export-xdpi="25"
   inkscape:export-ydpi="25"><defs
     id="defs121" /><sodipodi:namedview
     pagecolor="#ffffff"
     bordercolor="#666666"
     borderopacity="1"
     objecttolerance="10"
     gridtolerance="10"
     guidetolerance="10"
     inkscape:pageopacity="0"
     inkscape:pageshadow="2"
     inkscape:window-width="640"
     inkscape:window-height="480"
     id="namedview119"
     showgrid="false"
     fit-margin-top="0"
     fit-margin-left="0"
     fit-margin-right="0"
     fit-margin-bottom="0"
     inkscape:zoom="0.83705831"
     inkscape:cx="113.62334"
     inkscape:cy="97.666246"
     inkscape:window-x="0"
     inkscape:window-y="0"
     inkscape:window-maximized="0"
     inkscape:current-layer="Layer_1" /><path
     d="m 157.89883,227.93815 11.228,-110.98 c 0,0 64.91,-4.035 57.777,-43.608998 -7.137,-39.563 -36.446,-39.925 -36.446,-39.925 0,0 1.172,-26.1320002 -24.548,-28.4440002 -25.724,-2.311 -49.254,-9.114 -58.051,8.0220002 -8.081997,15.731 0,0 0,0 0,0 -19.916997,-3.9560002 -30.957997,-2.852 -11.041,1.104 -25.175,15.997 -25.175,15.997 0,0 -51.44300033,-4.63 -50.0050003,25.743 1.438,30.372 21.2150003,36.941 21.2150003,36.941 0,0 -10.933,18.180998 5.568,23.860998 16.498,5.671 22.928,6.251 22.928,6.251 l 10.254,102.73 96.199997,6.27 z"
     id="path109"
     inkscape:connector-curvature="0"
     style="fill:#ffffff;stroke:#010101;stroke-width:3.38249993" /><polygon
     points="299.9,207.68 225.44,196.98 225.99,202.59 "
     id="polygon111"
     style="fill:#010101"
     transform="translate(-151.59117,-6.5918482)" /><path
     d="m 222.49883,86.409152 c 0,0 -14.376,10.457 -22.875,10.457 -8.499,0 -34.544,-4.778 -36.602,-4.575 -86.926997,8.494998 4.575,20.913998 4.575,20.913998 0,0 16.99,-1.303 28.103,-5.227 11.113,-3.924 26.79,-21.568998 26.79,-21.568998 z"
     id="path113"
     inkscape:connector-curvature="0"
     style="fill:#dcddde" /><path
     d="m 27.728833,92.290152 c 0,0 -7.192,6.537 -4.575,10.456998 2.617,3.92 20.267,11.768 28.762,12.419 8.495,0.651 30.064,2.613 32.677,-4.575 2.613,-7.188 -11.767,-10.457 -24.837,-12.418998 -13.07,-1.96 -32.02,-5.878 -32.02,-5.878 z"
     id="path115"
     inkscape:connector-curvature="0"
     style="fill:#dcddde" /><metadata
     id="metadata117"><rdf:RDF><cc:Work><dc:format>image/svg+xml</dc:format><dc:type
           rdf:resource="http://purl.org/dc/dcmitype/StillImage" /><cc:license
           rdf:resource="http://creativecommons.org/licenses/publicdomain/" /><dc:publisher><cc:Agent
             rdf:about="http://openclipart.org/"><dc:title>Openclipart</dc:title></cc:Agent></dc:publisher><dc:title>bbq tools</dc:title><dc:date>2007-08-08T01:13:24</dc:date><dc:description>a fanciful 50s style illustration of commonly used bbq tools</dc:description><dc:source>http://openclipart.org/detail/4701/bbq-tools-by-johnny_automatic</dc:source><dc:creator><cc:Agent><dc:title>johnny_automatic</dc:title></cc:Agent></dc:creator><dc:subject><rdf:Bag><rdf:li>barbecue</rdf:li><rdf:li>barbeque</rdf:li><rdf:li>bbq</rdf:li><rdf:li>chef</rdf:li><rdf:li>clip art</rdf:li><rdf:li>clipart</rdf:li><rdf:li>cook</rdf:li><rdf:li>cooking</rdf:li><rdf:li>equipment</rdf:li><rdf:li>fork</rdf:li><rdf:li>grill</rdf:li><rdf:li>hat</rdf:li><rdf:li>image</rdf:li><rdf:li>media</rdf:li><rdf:li>png</rdf:li><rdf:li>public domain</rdf:li><rdf:li>skewer</rdf:li><rdf:li>spatula</rdf:li><rdf:li>svg</rdf:li><rdf:li>tool</rdf:li><rdf:li>toque</rdf:li></rdf:Bag></dc:subject></cc:Work><cc:License
         rdf:about="http://creativecommons.org/licenses/publicdomain/"><cc:permits
           rdf:resource="http://creativecommons.org/ns#Reproduction" /><cc:permits
           rdf:resource="http://creativecommons.org/ns#Distribution" /><cc:permits
           rdf:resource="http://creativecommons.org/ns#DerivativeWorks" /></cc:License></rdf:RDF></metadata></svg>